<svg xmlns="http://www.w3.org/2000/svg" >
	<dev>
        <symbol id="tick" viewBox="0 0 512 512">
            <path  d="M504.502,75.496c-9.997-9.998-26.205-9.998-36.204,0L161.594,382.203L43.702,264.311c-9.997-9.998-26.205-9.997-36.204,0
		c-9.998,9.997-9.998,26.205,0,36.203l135.994,135.992c9.994,9.997,26.214,9.99,36.204,0L504.502,111.7
		C514.5,101.703,514.499,85.494,504.502,75.496z"/>
        </symbol>

        <symbol id="star" viewBox="0 0 55.9 53.2">
            <path d="M11.3,53.2c-0.2,0-0.4-0.1-0.6-0.2c-0.3-0.2-0.5-0.6-0.4-1l3.1-18L0.3,21.3C0,21-0.1,20.6,0,20.3c0.1-0.4,0.4-0.6,0.8-0.7
		L18.9,17L27,0.6C27.2,0.2,27.6,0,27.9,0l0,0c0.4,0,0.7,0.2,0.9,0.6L36.9,17L55,19.6c0.4,0.1,0.7,0.3,0.8,0.7c0.1,0.4,0,0.8-0.3,1
		L42.5,34l3.1,18c0.1,0.4-0.1,0.8-0.4,1c-0.3,0.2-0.7,0.3-1.1,0.1l-16.2-8.5l-16.2,8.5C11.6,53.2,11.4,53.2,11.3,53.2z M3.1,21.3
		l12,11.7c0.2,0.2,0.3,0.6,0.3,0.9l-2.8,16.5l14.9-7.8c0.3-0.2,0.6-0.2,0.9,0l14.9,7.8l-2.8-16.5c-0.1-0.3,0.1-0.7,0.3-0.9l12-11.7
		l-16.6-2.4c-0.3,0-0.6-0.3-0.8-0.5l-7.4-15l-7.4,15c-0.1,0.3-0.4,0.5-0.8,0.5L3.1,21.3z"/>
        </symbol>

        <symbol viewBox="0 0 426.667 426.667" id="star-pick" >
            <polygon style="fill:#ff7800;" points="213.333,10.441 279.249,144.017 426.667,165.436 320,269.41 345.173,416.226 213.333,346.91
	81.485,416.226 106.667,269.41 0,165.436 147.409,144.017 "/>
        </symbol>

        <path id="arrow-top" d="M122,260l235.9,235.9c5.6,5.6,14.5,5.6,20,0c5.6-5.6,5.6-14.5,0-20L152.1,250L377.9,24.2c5.6-5.6,5.6-14.5,0-20
		c-2.7-2.7-6.4-4.2-10-4.2s-7.2,1.4-10,4.2L122.1,240.1C116.6,245.5,116.6,254.5,122,260z"/>

        <symbol viewBox="0 0 500 500" id="arrow-prev" >
            <path  d="M122,260l235.9,235.9c5.6,5.6,14.5,5.6,20,0c5.6-5.6,5.6-14.5,0-20L152.1,250L377.9,24.2c5.6-5.6,5.6-14.5,0-20
		c-2.7-2.7-6.4-4.2-10-4.2s-7.2,1.4-10,4.2L122.1,240.1C116.6,245.5,116.6,254.5,122,260z"/>
        </symbol>

        <symbol viewBox="0 0 477.175 477.175" id="arrow-next" >
            <path id="arrow-next" d="M360.731,229.075l-225.1-225.1c-5.3-5.3-13.8-5.3-19.1,0s-5.3,13.8,0,19.1l215.5,215.5l-215.5,215.5
			c-5.3,5.3-5.3,13.8,0,19.1c2.6,2.6,6.1,4,9.5,4c3.4,0,6.9-1.3,9.5-4l225.1-225.1C365.931,242.875,365.931,234.275,360.731,229.075z
			"/>
        </symbol>

        <path id="arrow-bottom" d="M360.731,229.075l-225.1-225.1c-5.3-5.3-13.8-5.3-19.1,0s-5.3,13.8,0,19.1l215.5,215.5l-215.5,215.5
			c-5.3,5.3-5.3,13.8,0,19.1c2.6,2.6,6.1,4,9.5,4c3.4,0,6.9-1.3,9.5-4l225.1-225.1C365.931,242.875,365.931,234.275,360.731,229.075z
			"/>

        <symbol viewBox="0 0 22.9 22.9" id="close" >
            <path  d="M0.3,1.9c-0.4-0.4-0.4-1.1,0-1.6c0.4-0.4,1.1-0.4,1.6,0l9.5,9.5L21,0.3c0.4-0.4,1.1-0.4,1.6,0
            c0.4,0.4,0.4,1.2,0,1.6L13,11.4l9.5,9.5c0.4,0.4,0.4,1.1,0,1.6c-0.4,0.4-1.1,0.4-1.6,0L11.4,13l-9.5,9.5c-0.4,0.4-1.1,0.4-1.6,0
            c-0.4-0.4-0.4-1.2,0-1.6l9.5-9.5L0.3,1.9z" />
        </symbol>


	</dev>

</svg>